<?xml version="1.0" encoding="utf-8"?>
<!-- Generator: Adobe Illustrator 25.3.1, SVG Export Plug-In . SVG Version: 6.00 Build 0)  -->
<svg version="1.1" id="레이어_1" xmlns="http://www.w3.org/2000/svg" xmlns:xlink="http://www.w3.org/1999/xlink" x="0px"
	 y="0px" viewBox="0 0 512 512" style="enable-background:new 0 0 512 512;" xml:space="preserve">
<path d="M307,477.2c-11.5-5.1-19-16.6-19-29.2v-64H176C78.8,384,0,305.2,0,208C0,94.7,81.5,44.1,100.2,33.9c2.5-1.4,5.3-1.9,8.1-1.9
	c10.9,0,19.7,8.9,19.7,19.7c0,7.5-4.3,14.4-9.8,19.5C108.8,80,96,97.6,96,127.9c0,53,43,96,96,96h96v-64c0-12.6,7.4-24.1,19-29.2
	c11.6-5.1,25-3,34.4,5.4l160,144c6.7,6.2,10.6,14.8,10.6,23.9s-3.9,17.7-10.6,23.8l-160,144C332,480.3,318.5,482.4,307,477.2z"/>
</svg>
